<?xml version="1.0" encoding="UTF-8" standalone="no"?>
<svg
   xmlns:dc="http://purl.org/dc/elements/1.1/"
   xmlns:cc="http://creativecommons.org/ns#"
   xmlns:rdf="http://www.w3.org/1999/02/22-rdf-syntax-ns#"
   xmlns:svg="http://www.w3.org/2000/svg"
   xmlns="http://www.w3.org/2000/svg"
   xmlns:sodipodi="http://sodipodi.sourceforge.net/DTD/sodipodi-0.dtd"
   xmlns:inkscape="http://www.inkscape.org/namespaces/inkscape"
   version="1.1"
   x="0px"
   y="0px"
   width="708.661"
   height="510.236"
   viewBox="0, 0, 708.661, 510.236"
   id="svg2"
   inkscape:version="0.48.2 r9819"
   sodipodi:docname="MatDBSplashScreen.svg"
   inkscape:export-filename="/Users/mussgill/Documents/Projects/MatDB/MatDBSplashScreen.png"
   inkscape:export-xdpi="76.271187"
   inkscape:export-ydpi="76.271187">
  <metadata
     id="metadata454">
    <rdf:RDF>
      <cc:Work
         rdf:about="">
        <dc:format>image/svg+xml</dc:format>
        <dc:type
           rdf:resource="http://purl.org/dc/dcmitype/StillImage" />
        <dc:title></dc:title>
      </cc:Work>
    </rdf:RDF>
  </metadata>
  <sodipodi:namedview
     pagecolor="#ffffff"
     bordercolor="#666666"
     borderopacity="1"
     objecttolerance="10"
     gridtolerance="10"
     guidetolerance="10"
     inkscape:pageopacity="0"
     inkscape:pageshadow="2"
     inkscape:window-width="1280"
     inkscape:window-height="752"
     id="namedview452"
     showgrid="false"
     inkscape:zoom="1.0004784"
     inkscape:cx="-305.35389"
     inkscape:cy="255.118"
     inkscape:window-x="0"
     inkscape:window-y="0"
     inkscape:window-maximized="1"
     inkscape:current-layer="svg2" />
  <path
     style="opacity:0.9;fill:#ffffff;fill-opacity:1;stroke:none;stroke-opacity:1"
     inkscape:connector-curvature="0"
     id="path438"
     d="m 52.629672,0.23599 602.740648,0 C 684.43767,0.23599 708,17.20948 708,38.147267 l 0,434.177453 c 0,20.93779 -23.56233,37.91128 -52.62968,37.91128 l -602.740648,0 C 23.563337,510.236 -1.0626898e-5,493.26251 -1.0626898e-5,472.32472 l 0,-434.177453 C -1.0626898e-5,17.20948 23.563337,0.23599 52.629672,0.23599 z" />
  <path
     style="opacity:0.15;fill:#000000"
     inkscape:connector-curvature="0"
     id="path440"
     d="m 42.821,352.092 q -0.486,-0.112 -0.599,0.374 l -1.998,8.655 q -0.157,0.68 0.621,0.86 l 16.532,3.817 q 0.583,0.134 0.718,-0.449 l 2.021,-8.752 q 0.112,-0.486 -0.472,-0.621 l -16.823,-3.884 z m 11.802,-58.22 q 0.112,-0.487 -0.374,-0.599 -4.877,-0.614 -10.159,2.52 -5.281,3.134 -7.129,8.034 -0.135,0.583 0.351,0.695 l 8.947,2.066 q 0.292,0.067 0.74,-0.546 2.013,-2.506 5.058,-2.827 0.411,-0.008 0.591,-0.786 l 1.975,-8.557 z m 4.72,1.294 q 0.202,-0.875 0.935,-0.501 5.222,2.23 8.101,7.504 3.156,5.85 1.675,12.268 -1.19,5.154 -4.4,8.408 l -27.77,28.005 -2.155,9.335 q -0.158,0.681 -0.644,0.569 L 24.68,358.351 q -0.583,-0.134 -0.404,-0.912 l 2.021,-8.752 q 0.067,-0.292 0.636,-0.98 l 31.391,-31.266 q 1.87,-2.334 2.252,-3.987 1.235,-5.349 -3.298,-8.341 l 2.065,-8.947 z m 33.577,78.837 -8.752,-2.02 q -0.681,-0.157 -0.546,-0.741 l 12.236,-52.999 -10.339,6.627 q -0.793,0.329 -0.636,-0.351 l 2.986,-12.934 11.82,-7.719 9.044,2.088 q 0.583,0.135 0.471,0.621 L 93.758,373.48 q -0.157,0.681 -0.838,0.523 z m 49.269,-60.12 q 0.112,-0.486 -0.471,-0.621 -6.164,-0.809 -11.738,3.59 -5.573,4.398 -7.077,10.913 l -7.476,32.383 q -1.707,7.39 1.352,13.218 2.835,5.469 8.864,8.192 0.658,0.255 0.771,-0.232 l 2.065,-8.946 q 0.135,-0.584 -0.381,-1.01 -3.935,-3.367 -2.88,-7.937 l 7.926,-34.328 q 0.516,-2.237 2.472,-3.834 1.957,-1.596 3.939,-1.753 0.411,-0.008 0.546,-0.591 l 2.088,-9.044 z m 4.593,0.959 q 0.112,-0.487 0.965,-0.188 5.73,2.246 8.701,8.01 2.971,5.763 1.51,12.093 l -7.712,33.402 q -1.551,6.72 -6.718,10.913 -5.168,4.191 -11.856,3.878 -0.778,-0.179 -0.71,-0.472 l 2.136,-9.251 q 0.112,-0.487 0.643,-0.569 2.2,-0.21 4.175,-2.113 1.976,-1.904 2.449,-3.949 l 7.824,-33.89 q 1.146,-4.966 -3.072,-7.991 -0.538,-0.33 -0.449,-0.719 l 2.114,-9.154 z m 27.32,67.559 q -0.486,-0.113 -0.598,0.374 l -1.998,8.654 q -0.158,0.681 0.62,0.861 l 16.532,3.816 q 0.584,0.135 0.718,-0.448 l 2.021,-8.753 q 0.112,-0.486 -0.471,-0.62 l -16.824,-3.884 z m 11.803,-58.221 q 0.112,-0.486 -0.374,-0.598 -4.878,-0.614 -10.159,2.52 -5.282,3.134 -7.13,8.033 -0.135,0.584 0.352,0.696 l 8.946,2.065 q 0.292,0.068 0.741,-0.546 2.012,-2.505 5.057,-2.827 0.411,-0.007 0.591,-0.785 l 1.976,-8.558 z m 4.72,1.295 q 0.202,-0.875 0.935,-0.501 5.221,2.229 8.101,7.504 3.156,5.85 1.674,12.268 -1.19,5.154 -4.399,8.408 l -27.771,28.004 -2.155,9.336 q -0.157,0.681 -0.644,0.568 l -10.405,-2.402 q -0.583,-0.135 -0.404,-0.913 l 2.021,-8.752 q 0.067,-0.291 0.636,-0.98 l 31.391,-31.265 q 1.871,-2.334 2.252,-3.987 1.235,-5.349 -3.298,-8.342 l 2.066,-8.946 z m 39.085,8.614 q 0.112,-0.487 -0.471,-0.621 -6.164,-0.809 -11.738,3.589 -5.573,4.398 -7.077,10.914 l -7.476,32.383 q -1.707,7.39 1.352,13.218 2.835,5.468 8.864,8.192 0.658,0.254 0.77,-0.232 L 216,392.586 q 0.135,-0.584 -0.381,-1.01 -3.935,-3.367 -2.88,-7.938 l 7.925,-34.327 q 0.517,-2.237 2.473,-3.834 1.956,-1.597 3.939,-1.754 0.411,-0.007 0.546,-0.59 l 2.088,-9.044 z m 4.593,0.958 q 0.112,-0.487 0.965,-0.187 5.729,2.246 8.701,8.009 2.971,5.764 1.51,12.094 l -7.712,33.402 q -1.551,6.72 -6.719,10.912 -5.167,4.192 -11.855,3.879 -0.778,-0.18 -0.71,-0.472 l 2.136,-9.251 q 0.112,-0.487 0.643,-0.57 2.2,-0.21 4.175,-2.113 1.976,-1.903 2.448,-3.948 l 7.824,-33.89 q 1.147,-4.966 -3.071,-7.992 -0.539,-0.329 -0.449,-0.719 l 2.114,-9.154 z m 36.868,43.952 8.265,1.908 q 0.681,0.157 0.546,0.74 l -3.255,14.101 4.473,1.033 q 0.584,0.134 0.494,0.523 l -2.11,9.141 q -0.068,0.292 -0.554,0.18 l -4.571,-1.055 -2.11,9.141 q -0.157,0.681 -0.74,0.546 l -8.461,-1.953 q -0.583,-0.135 -0.471,-0.621 l 7.678,-33.258 q 0.135,-0.584 0.816,-0.426 z m -25.893,19.424 2.178,-9.433 22.858,-45.322 q 0.187,-0.367 0.673,-0.255 l 9.627,2.223 q 0.292,0.067 -0.015,0.509 l -22.558,45.801 3.792,0.876 q 0.681,0.157 0.546,0.74 l -1.953,8.461 q -0.134,0.583 -0.621,0.471 l -14.1,-3.255 q -0.584,-0.135 -0.427,-0.816 z m -46.263,-84.667 q 0.681,0.157 0.838,-0.524 l 15.446,-66.905 q 0.112,-0.486 -0.471,-0.62 l -9.044,-2.088 -11.82,7.718 -2.986,12.934 q -0.157,0.681 0.636,0.352 l 10.339,-6.627 -12.236,52.999 q -0.135,0.583 0.546,0.74 l 8.752,2.021 z m -33.577,-78.837 -2.065,8.946 q 4.533,2.993 3.298,8.341 -0.382,1.653 -2.252,3.987 l -31.391,31.266 q -0.569,0.688 -0.636,0.98 l -2.021,8.752 q -0.18,0.778 0.404,0.913 l 10.405,2.402 q 0.486,0.112 0.644,-0.568 l 2.155,-9.336 27.77,-28.005 q 3.21,-3.253 4.4,-8.407 1.481,-6.419 -1.675,-12.269 -2.879,-5.274 -8.101,-7.503 -0.733,-0.375 -0.935,0.501 z m -4.72,-1.295 -1.975,8.558 q -0.18,0.778 -0.592,0.785 -3.044,0.321 -5.057,2.827 -0.449,0.614 -0.74,0.546 l -8.947,-2.065 q -0.486,-0.113 -0.351,-0.696 1.848,-4.9 7.129,-8.033 5.282,-3.134 10.159,-2.52 0.486,0.112 0.374,0.598 z m -11.802,58.22 16.823,3.884 q 0.584,0.135 0.472,0.621 l -2.021,8.752 q -0.135,0.584 -0.718,0.449 l -16.532,-3.817 q -0.778,-0.179 -0.621,-0.86 l 1.998,-8.655 q 0.113,-0.486 0.599,-0.374 z m 11.169,151.612 q 2.917,0.674 4.78,3.255 1.862,2.581 1.076,5.984 l -2.178,9.433 q -1.257,5.446 -7.054,6.156 l -2.156,9.336 q -0.157,0.68 0.547,0.74 6.882,0.36 11.905,-3.653 5.024,-4.013 6.483,-10.334 l 2.2,-9.53 q 1.707,-7.39 -2.332,-13.854 -4.039,-6.463 -11.176,-7.497 l -2.281,-0.321 q -0.412,0.007 -0.479,0.299 l -2.223,9.627 q -0.112,0.486 0.322,0.382 1.885,-0.18 2.566,-0.023 z m 5.59,-24.214 q -2.82,-0.651 -5.48,0.886 -2.659,1.537 -3.355,4.552 l -7.992,34.619 q -1.011,4.376 2.408,7.316 0.658,0.255 0.523,0.838 l -2.043,8.85 q -0.18,0.778 -0.815,0.426 -6.179,-2.963 -8.804,-8.895 -2.446,-5.379 -1.076,-11.311 l 7.745,-33.55 q 1.684,-7.293 7.893,-11.339 6.21,-4.047 13.017,-2.475 7.196,1.661 10.981,7.451 2.961,4.474 3.111,10.04 -0.053,1.114 -0.928,0.912 l -9.238,-2.133 q -0.987,-5.042 -5.947,-6.187 z m -39.301,-19.213 -2.114,9.154 q -0.09,0.39 0.449,0.719 4.218,3.026 3.071,7.992 l -7.823,33.889 q -0.473,2.046 -2.449,3.949 -1.975,1.903 -4.175,2.113 -0.531,0.082 -0.643,0.569 l -2.136,9.252 q -0.068,0.292 0.71,0.472 6.688,0.313 11.856,-3.879 5.167,-4.192 6.718,-10.912 l 7.712,-33.402 q 1.461,-6.33 -1.51,-12.094 -2.971,-5.763 -8.701,-8.009 -0.853,-0.3 -0.965,0.187 z m -4.593,-0.958 -2.088,9.043 q -0.135,0.584 -0.546,0.591 -1.982,0.157 -3.939,1.754 -1.956,1.597 -2.472,3.834 l -7.926,34.327 q -1.055,4.571 2.88,7.937 0.516,0.427 0.381,1.01 l -2.065,8.947 q -0.113,0.486 -0.771,0.232 -6.029,-2.724 -8.864,-8.192 -3.059,-5.828 -1.352,-13.219 l 7.476,-32.382 q 1.504,-6.516 7.077,-10.914 5.574,-4.398 11.738,-3.589 0.583,0.134 0.471,0.621 z" />
  <text
     id="text442"
     x="215.433"
     y="140.315">
    <tspan
       style="font-size:250px;fill:#000000;font-family:DINAlternate-Bold"
       id="tspan444"
       font-size="250"
       y="211.81999"
       x="23.477007">Mat</tspan>
  </text>
  <path
     style="fill:#b54b8a"
     inkscape:connector-curvature="0"
     id="path446"
     d="m 589.976,430.265 -69.017,0 q -14.944,0 -21.337,-6.701 -6.394,-6.702 -6.394,-21.337 l 0,-169.771 q 0,-14.943 6.548,-21.491 6.547,-6.547 21.183,-6.547 l 73.177,0 q 16.176,0 28.038,2.003 11.862,2.002 21.26,7.703 8.011,4.775 14.173,12.093 6.162,7.318 9.398,16.176 3.235,8.858 3.235,18.718 0,33.892 -33.893,49.606 44.523,14.173 44.523,55.153 0,18.949 -9.706,34.123 -9.706,15.175 -26.19,22.415 -10.321,4.314 -23.724,6.086 -13.403,1.771 -31.274,1.771 z m -3.389,-100.291 -47.604,0 0,65.937 49.144,0 q 46.372,0 46.372,-33.431 0,-17.1 -12.017,-24.803 -12.016,-7.703 -35.895,-7.703 z m -47.604,-91.201 0,58.387 41.904,0 q 17.1,0 26.42,-3.235 9.321,-3.235 14.251,-12.325 3.851,-6.47 3.851,-14.481 0,-17.1 -12.17,-22.723 -12.171,-5.623 -37.128,-5.623 l -37.128,0 z" />
  <path
     style="fill:#b54b8a"
     inkscape:connector-curvature="0"
     id="path448"
     d="m 333.43,204.095 59.791,0 q 23.329,0 40.015,4.326 16.686,4.325 30.282,16.222 35.38,30.281 35.38,92.081 0,20.393 -3.554,37.234 -3.553,16.84 -10.969,30.359 -7.416,13.518 -19.003,24.178 -9.116,8.189 -19.931,13.133 -10.815,4.944 -23.252,6.952 -12.437,2.009 -28.041,2.009 l -59.791,0 q -12.514,0 -18.849,-3.785 -6.334,-3.786 -8.265,-10.661 -1.931,-6.875 -1.931,-17.844 l 0,-166.086 q 0,-14.832 6.643,-21.475 6.643,-6.643 21.475,-6.643 z m 17.767,36.307 0,153.725 34.763,0 q 11.432,0 17.921,-0.618 6.489,-0.618 13.442,-3.09 6.952,-2.472 12.051,-6.952 23.02,-19.467 23.02,-67.052 0,-33.526 -10.12,-50.212 -10.12,-16.686 -24.951,-21.244 -14.832,-4.557 -35.844,-4.557 l -30.282,0 z" />
  <defs
     id="defs450" />
</svg>
