<?xml version="1.0" encoding="UTF-8" standalone="no"?>
<svg
   xmlns:dc="http://purl.org/dc/elements/1.1/"
   xmlns:cc="http://creativecommons.org/ns#"
   xmlns:rdf="http://www.w3.org/1999/02/22-rdf-syntax-ns#"
   xmlns:svg="http://www.w3.org/2000/svg"
   xmlns="http://www.w3.org/2000/svg"
   xmlns:sodipodi="http://sodipodi.sourceforge.net/DTD/sodipodi-0.dtd"
   xmlns:inkscape="http://www.inkscape.org/namespaces/inkscape"
   version="1.1"
   x="0px"
   y="0px"
   width="370.98856"
   height="424.85629"
   viewBox="0 0 370.98854 424.85627"
   id="svg2"
   inkscape:version="0.48.2 r9819"
   sodipodi:docname="MatDBBG.svg"
   inkscape:export-filename="/Users/mussgill/Documents/Projects/MatDB/MatDBBG.png"
   inkscape:export-xdpi="90"
   inkscape:export-ydpi="90">
  <metadata
     id="metadata21">
    <rdf:RDF>
      <cc:Work
         rdf:about="">
        <dc:format>image/svg+xml</dc:format>
        <dc:type
           rdf:resource="http://purl.org/dc/dcmitype/StillImage" />
        <dc:title></dc:title>
      </cc:Work>
    </rdf:RDF>
  </metadata>
  <sodipodi:namedview
     pagecolor="#ffffff"
     bordercolor="#666666"
     borderopacity="1"
     objecttolerance="10"
     gridtolerance="10"
     guidetolerance="10"
     inkscape:pageopacity="0"
     inkscape:pageshadow="2"
     inkscape:window-width="1280"
     inkscape:window-height="752"
     id="namedview19"
     showgrid="false"
     units="px"
     inkscape:zoom="1.2568956"
     inkscape:cx="185.49428"
     inkscape:cy="212.42815"
     inkscape:window-x="0"
     inkscape:window-y="0"
     inkscape:window-maximized="1"
     inkscape:current-layer="svg2"
     fit-margin-top="20"
     fit-margin-right="20"
     fit-margin-bottom="20"
     fit-margin-left="20" />
  <g
     id="g3001"
     transform="matrix(0.6943671,-0.09759382,0.09759382,0.6943671,-68.443302,13.316181)"
     style="opacity:0.4">
    <text
       style="font-size:12px"
       y="191.33896"
       x="283.465"
       id="text7">
      <tspan
         x="91.509003"
         y="262.84396"
         font-size="250"
         id="tspan9"
         style="font-size:250px;fill:#000000;font-family:DINAlternate-Bold">Mat</tspan>
    </text>
    <path
       d="m 203.867,254.79497 59.79,0 q 23.33,0 40.015,4.326 16.686,4.326 30.282,16.22199 35.38,30.282 35.38,92.081 0,20.394 -3.553,37.234 -3.554,16.84 -10.97,30.359 -7.416,13.518 -19.003,24.179 -9.115,8.18801 -19.93,13.13201 -10.815,4.944 -23.252,6.952 -12.437,2.009 -28.042,2.009 l -59.79,0 q -12.515,0 -18.849,-3.785 -6.335,-3.785 -8.266,-10.66101 -1.931,-6.875 -1.931,-17.844 l 0,-166.086 q 0,-14.831 6.643,-21.47499 6.644,-6.643 21.476,-6.643 z m 17.767,36.30699 0,153.725 34.762,0 q 11.433,0 17.922,-0.618 6.489,-0.618 13.441,-3.09 6.952,-2.472 12.051,-6.952 23.02,-19.467 23.02,-67.052 0,-33.526 -10.119,-50.212 -10.12,-16.686 -24.952,-21.244 -14.832,-4.557 -35.843,-4.557 l -30.282,0 z"
       id="path11"
       inkscape:connector-curvature="0"
       style="fill:#b54b8a" />
    <path
       d="m 453.913,480.96597 -69.017,0 q -14.944,0 -21.337,-6.702 -6.394,-6.701 -6.394,-21.33701 l 0,-169.771 q 0,-14.943 6.548,-21.48999 6.547,-6.548 21.183,-6.548 l 73.177,0 q 16.176,0 28.038,2.003 11.862,2.003 21.26,7.703 8.011,4.77499 14.173,12.09299 6.162,7.318 9.398,16.176 3.235,8.858 3.235,18.718 0,33.893 -33.893,49.606 44.523,14.174 44.523,55.153 0,18.949 -9.706,34.123 -9.705,15.175 -26.19,22.41601 -10.321,4.313 -23.724,6.085 -13.403,1.772 -31.274,1.772 z m -3.389,-100.29201 -47.604,0 0,65.937 49.144,0 q 46.372,0 46.372,-33.431 0,-17.1 -12.017,-24.803 -12.016,-7.703 -35.895,-7.703 z m -47.604,-91.201 0,58.387 41.904,0 q 17.1,0 26.421,-3.235 9.32,-3.235 14.25,-12.324 3.851,-6.471 3.851,-14.482 0,-17.1 -12.17,-22.723 -12.171,-5.623 -37.128,-5.623 l -37.128,0 z"
       id="path13"
       inkscape:connector-curvature="0"
       style="fill:#b54b8a" />
  </g>
  <path
     style="opacity:0.1;fill:#000000"
     inkscape:connector-curvature="0"
     id="path15"
     d="m 46.864538,283.48903 q -0.408512,-0.1499 -0.556761,0.2586 l -2.64709,7.27086 q -0.20755,0.57323 0.44475,0.81043 l 13.889396,5.05533 q 0.489225,0.17791 0.668772,-0.31133 l 2.675093,-7.3532 q 0.149898,-0.40852 -0.340975,-0.58641 l -14.133185,-5.14428 z m 16.384941,-49.08729 q 0.148249,-0.40851 -0.260262,-0.55677 -4.151006,-1.04763 -9.049851,1.10035 -4.900491,2.14963 -7.018822,6.18863 -0.1779,0.49087 0.230611,0.63911 l 7.516285,2.73605 q 0.245436,0.089 0.698423,-0.39369 2.006319,-1.95196 4.673175,-1.90749 0.355801,0.0379 0.594649,-0.61606 l 2.615792,-7.19013 z m 3.943454,1.62086 q 0.268498,-0.73465 0.861499,-0.33438 4.277842,2.48236 6.208389,7.34827 2.108447,5.39301 0.144955,10.78602 -1.576394,4.32891 -4.696237,6.80139 l -26.984828,21.26566 -2.85464,7.84409 q -0.207551,0.57159 -0.616063,0.42334 l -8.741819,-3.18244 q -0.489226,-0.1779 -0.252025,-0.83185 l 2.67674,-7.35321 q 0.08895,-0.24544 0.653947,-0.77913 l 30.460473,-23.70027 q 1.864658,-1.82019 2.370356,-3.20879 1.635693,-4.49363 -1.965139,-7.56241 l 2.734392,-7.51629 z m 20.66278,71.73004 -7.353207,-2.67674 q -0.571587,-0.20756 -0.393687,-0.69843 l 16.20539,-44.52447 -9.642852,4.63199 q -0.719832,0.19932 -0.512277,-0.37226 l 3.954979,-10.8651 11.039691,-5.41936 7.59863,2.76569 q 0.48923,0.17789 0.34098,0.5864 L 88.634848,307.3886 q -0.207543,0.57159 -0.779135,0.36404 z m 48.981847,-46.75152 q 0.14825,-0.40852 -0.34263,-0.58641 -5.24311,-1.35403 -10.52905,1.85642 -5.28595,3.21208 -7.27743,8.68581 l -9.90312,27.20556 q -2.25998,6.20839 -0.23226,11.57175 1.8696,5.02898 6.79316,8.02363 0.54194,0.28991 0.69184,-0.1186 l 2.73438,-7.51628 q 0.17955,-0.48923 -0.22238,-0.91257 -3.04406,-3.32904 -1.64722,-7.16872 l 10.49776,-28.8396 q 0.6836,-1.87949 2.54496,-3.05231 1.86137,-1.17283 3.59095,-1.0987 0.35745,0.0379 0.53535,-0.45299 l 2.76569,-7.59699 z m 3.86933,1.31613 q 0.14826,-0.40851 0.85326,-0.0593 4.71601,2.5499 6.67291,7.84903 1.95854,5.29912 0.023,10.61636 l -10.21445,28.06211 q -2.05408,5.64504 -6.96776,8.72206 -4.91201,3.07537 -10.66248,2.09527 -0.65394,-0.23885 -0.56335,-0.48429 l 2.82829,-7.77161 q 0.14826,-0.41015 0.61771,-0.42498 1.92396,0.0527 3.83309,-1.38366 1.91078,-1.43638 2.53673,-3.15444 l 10.36268,-28.47063 q 1.51875,-4.17242 -1.80701,-7.23625 -0.43157,-0.34098 -0.31296,-0.66877 l 2.80028,-7.6909 z m 16.44919,61.31463 q -0.40852,-0.1499 -0.55677,0.25861 l -2.64709,7.27252 q -0.20755,0.57158 0.4464,0.80878 l 13.88775,5.05533 q 0.49087,0.17791 0.66877,-0.31133 l 2.67674,-7.3532 q 0.14825,-0.40851 -0.34262,-0.58641 l -14.13318,-5.1443 z m 16.38493,-49.08729 q 0.1499,-0.4085 -0.25861,-0.55676 -4.15266,-1.04764 -9.0515,1.10034 -4.89884,2.14963 -7.01718,6.18863 -0.17955,0.49087 0.22897,0.63912 l 7.51629,2.73605 q 0.24543,0.089 0.69841,-0.3937 2.00633,-1.95195 4.67318,-1.90748 0.3558,0.0379 0.59465,-0.61606 l 2.61579,-7.19014 z m 3.9451,1.62087 q 0.26686,-0.73466 0.86151,-0.33439 4.27784,2.48237 6.20674,7.34828 2.10844,5.393 0.14495,10.78602 -1.57475,4.32891 -4.69623,6.80304 l -26.98319,21.26401 -2.85464,7.8441 q -0.2092,0.57159 -0.6177,0.42334 l -8.74183,-3.18244 q -0.48922,-0.17789 -0.25202,-0.83184 l 2.67674,-7.35324 q 0.089,-0.24543 0.65394,-0.77913 l 30.46048,-23.70026 q 1.8663,-1.82019 2.37036,-3.2088 1.63569,-4.49363 -1.96514,-7.5624 l 2.73603,-7.51629 z m 32.8786,11.59811 q 0.1499,-0.40851 -0.34097,-0.58806 -5.24312,-1.35237 -10.52906,1.85807 -5.28594,3.21044 -7.27908,8.68416 l -9.90147,27.20556 q -2.25999,6.21005 -0.2339,11.57341 1.87124,5.02898 6.79479,8.02363 0.54194,0.28992 0.69019,-0.11859 l 2.73604,-7.51629 q 0.1779,-0.49087 -0.22238,-0.91421 -3.04571,-3.32739 -1.64722,-7.16707 l 10.49612,-28.83962 q 0.68359,-1.87949 2.54496,-3.0523 1.86136,-1.17283 3.59259,-1.09871 0.3558,0.0379 0.5337,-0.45298 l 2.76569,-7.597 z m 3.86933,1.31613 q 0.1499,-0.41015 0.85491,-0.0593 4.716,2.54989 6.67291,7.84902 1.9569,5.29747 0.0214,10.61636 l -10.21278,28.06213 q -2.05573,5.64503 -6.96776,8.72205 -4.91367,3.07537 -10.66248,2.09362 -0.65395,-0.2372 -0.565,-0.48263 l 2.82993,-7.77325 q 0.14825,-0.40852 0.61606,-0.42334 1.92396,0.0527 3.83474,-1.38367 1.91078,-1.43638 2.53507,-3.15443 l 10.3627,-28.47065 q 1.51873,-4.17242 -1.80701,-7.23625 -0.42992,-0.34262 -0.31133,-0.66877 l 2.79864,-7.6909 z m 27.21215,41.91529 6.94305,2.52684 q 0.57159,0.2092 0.39368,0.69843 l -4.31078,11.84683 3.75732,1.36719 q 0.49087,0.17955 0.37227,0.50571 l -2.79534,7.67935 q -0.0906,0.24544 -0.4991,0.0971 l -3.83968,-1.39849 -2.7937,7.67936 q -0.20919,0.57323 -0.69843,0.39369 l -7.10777,-2.58615 q -0.49087,-0.17954 -0.34262,-0.58805 l 10.16996,-27.94023 q 0.1779,-0.48922 0.75114,-0.28167 z m -24.44975,14.04588 2.88429,-7.9248 24.57493,-36.75948 q 0.20097,-0.29814 0.60948,-0.14988 l 8.08787,2.94523 q 0.24544,0.089 -0.0676,0.43816 l -24.36739,37.20587 3.18738,1.15964 q 0.57159,0.20756 0.39204,0.69843 l -2.58614,7.10777 q -0.17791,0.48924 -0.58641,0.34099 l -11.84684,-4.31079 q -0.49088,-0.17956 -0.28167,-0.75114 z m -31.0123,-78.11634 q 0.5716,0.20756 0.77914,-0.36403 l 20.45853,-56.20824 q 0.14825,-0.40851 -0.34097,-0.58641 l -7.59866,-2.76569 -11.03804,5.41937 -3.95499,10.86509 q -0.20919,0.57158 0.51229,0.37227 l 9.64285,-4.63199 -16.20704,44.52448 q -0.1779,0.49087 0.39368,0.69841 l 7.35321,2.67674 z m -20.66113,-71.73002 -2.73604,7.51627 q 3.60083,3.06879 1.96514,7.56242 -0.50405,1.3886 -2.37036,3.20714 l -30.46046,23.70191 q -0.565,0.5337 -0.65395,0.77914 l -2.67674,7.35321 q -0.2372,0.6523 0.25202,0.83185 l 8.74181,3.18078 q 0.40852,0.1499 0.61771,-0.42334 l 2.85464,-7.84242 26.98318,-21.26568 q 3.1215,-2.47248 4.69624,-6.80138 1.96349,-5.39301 -0.14495,-10.78603 -1.9289,-4.8659 -6.20675,-7.34826 -0.59464,-0.40028 -0.86149,0.33439 z m -3.9451,-1.62087 -2.6158,7.19012 q -0.23885,0.65395 -0.59464,0.61608 -2.66685,-0.0462 -4.67318,1.90748 -0.45298,0.48263 -0.69842,0.39368 l -7.51629,-2.73604 q -0.40851,-0.14824 -0.22896,-0.63911 2.11834,-4.039 7.01717,-6.18863 4.89885,-2.14963 9.05151,-1.10035 0.4085,0.14825 0.25861,0.55677 z m -16.38494,49.08564 14.13318,5.14427 q 0.49087,0.17955 0.34262,0.58807 l -2.67673,7.35156 q -0.17791,0.49087 -0.66878,0.31296 l -13.88774,-5.05533 q -0.65395,-0.23884 -0.44641,-0.81042 l 2.6471,-7.27086 q 0.14825,-0.40851 0.55676,-0.26025 z m -6.439,132.27542 q 2.45106,0.89115 3.78697,3.3208 1.33754,2.42966 0.2965,5.28924 l -2.88429,7.92315 q -1.66534,4.57599 -6.75363,4.57434 l -2.85464,7.84244 q -0.20754,0.57158 0.3937,0.69842 5.91189,1.04269 10.68224,-1.89431 4.76871,-2.937 6.70256,-8.246 l 2.91394,-8.00716 q 2.25999,-6.20839 -0.54688,-12.2257 -2.80522,-6.01732 -8.86701,-7.66948 l -1.93713,-0.52052 q -0.35746,-0.0362 -0.44641,0.20919 l -2.94358,8.08788 q -0.14825,0.40851 0.2372,0.36404 1.64887,0.0444 2.22046,0.25367 z m 7.40427,-20.34322 q -2.36871,-0.86315 -4.8313,0.18449 -2.46261,1.04598 -3.38505,3.57941 l -10.58507,29.0834 q -1.33919,3.6766 1.30461,6.58231 0.54193,0.28991 0.36404,0.77913 l -2.7064,7.43557 q -0.23719,0.6523 -0.74948,0.28168 -5.02733,-3.21867 -6.66797,-8.62651 -1.54345,-4.91038 0.27014,-9.89323 l 10.25892,-28.18566 q 2.23034,-6.12767 8.02857,-8.96749 5.79822,-2.83816 11.51739,-0.75773 6.04532,2.2007 8.70229,7.60854 2.08703,4.1823 1.62417,9.01032 -0.16308,0.95868 -0.89775,0.69183 l -7.76171,-2.82499 q -0.31792,-4.46562 -4.4854,-5.98107 z m -31.94132,-20.78468 -2.79865,7.6909 q -0.11859,0.32615 0.31133,0.66877 3.32575,3.06383 1.80701,7.23625 l -10.36267,28.47062 q -0.62429,1.71806 -2.53507,3.15444 -1.910784,1.43638 -3.834751,1.38367 -0.467808,0.0149 -0.617708,0.42334 l -2.828278,7.77324 q -0.08896,0.24545 0.564999,0.48265 5.748812,0.98174 10.660838,-2.09363 4.91364,-3.07701 6.96773,-8.72205 l 10.21445,-28.06211 q 1.93548,-5.31889 -0.0214,-10.61637 -1.95691,-5.29912 -6.67291,-7.84901 -0.70502,-0.34922 -0.85491,0.0593 z m -3.86934,-1.31613 -2.76567,7.597 q -0.1779,0.49087 -0.5337,0.45298 -1.73124,-0.0741 -3.59259,1.0987 -1.86137,1.17282 -2.54496,3.05231 l -10.496114,28.8396 q -1.398504,3.83968 1.647219,7.16708 0.400275,0.42334 0.222377,0.91421 l -2.736044,7.51628 q -0.148252,0.40851 -0.690186,0.1186 -4.925197,-2.99465 -6.794799,-8.02363 -2.026085,-5.36336 0.233907,-11.5734 l 9.90147,-27.20555 q 1.993136,-5.47374 7.279074,-8.68417 5.285946,-3.21045 10.529046,-1.85807 0.48922,0.17955 0.34097,0.58806 z" />
  <defs
     id="defs17" />
</svg>
