<?xml version="1.0" encoding="UTF-8" standalone="no"?>
<svg
   xmlns:dc="http://purl.org/dc/elements/1.1/"
   xmlns:cc="http://creativecommons.org/ns#"
   xmlns:rdf="http://www.w3.org/1999/02/22-rdf-syntax-ns#"
   xmlns:svg="http://www.w3.org/2000/svg"
   xmlns="http://www.w3.org/2000/svg"
   xmlns:sodipodi="http://sodipodi.sourceforge.net/DTD/sodipodi-0.dtd"
   xmlns:inkscape="http://www.inkscape.org/namespaces/inkscape"
   version="1.1"
   x="0px"
   y="0px"
   width="566.92902"
   height="566.92902"
   viewBox="0 0 566.929 566.92899"
   id="svg2"
   inkscape:version="0.48.2 r9819"
   sodipodi:docname="MatDBiconsmall.svg"
   inkscape:export-filename="/Users/mussgill/Documents/Projects/MatDB/MatDBicon.png"
   inkscape:export-xdpi="5.0883393"
   inkscape:export-ydpi="5.0883393">
  <metadata
     id="metadata21">
    <rdf:RDF>
      <cc:Work
         rdf:about="">
        <dc:format>image/svg+xml</dc:format>
        <dc:type
           rdf:resource="http://purl.org/dc/dcmitype/StillImage" />
        <dc:title></dc:title>
      </cc:Work>
    </rdf:RDF>
  </metadata>
  <sodipodi:namedview
     pagecolor="#ffffff"
     bordercolor="#666666"
     borderopacity="1"
     objecttolerance="10"
     gridtolerance="10"
     guidetolerance="10"
     inkscape:pageopacity="0"
     inkscape:pageshadow="2"
     inkscape:window-width="1280"
     inkscape:window-height="752"
     id="namedview19"
     showgrid="false"
     units="px"
     inkscape:zoom="0.94191686"
     inkscape:cx="-183.66801"
     inkscape:cy="283.46451"
     inkscape:window-x="0"
     inkscape:window-y="0"
     inkscape:window-maximized="1"
     inkscape:current-layer="svg2" />
  <path
     style="opacity:0.75;fill:#ffffff;fill-opacity:1"
     inkscape:connector-curvature="0"
     id="path5"
     d="m 42.074064,0.92900609 481.851856,0 c 23.23658,0 42.07406,18.83748591 42.07406,42.07406291 l 0,481.851861 c 0,23.23657 -18.83748,42.07406 -42.07406,42.07406 l -481.851856,0 C 18.837486,566.92899 0,548.0915 0,524.85493 L 0,43.003069 C 0,19.766492 18.837486,0.92900609 42.074064,0.92900609 z" />
  <text
     id="text7"
     x="283.465"
     y="191.33896"
     style="font-size:12px">
    <tspan
       style="font-size:250px;fill:#000000;font-family:DINAlternate-Bold"
       id="tspan9"
       font-size="250"
       y="262.84396"
       x="91.509003">Mat</tspan>
  </text>
  <path
     style="fill:#b54b8a"
     inkscape:connector-curvature="0"
     id="path11"
     d="m 203.867,254.79497 59.79,0 q 23.33,0 40.015,4.326 16.686,4.326 30.282,16.22199 35.38,30.282 35.38,92.081 0,20.394 -3.553,37.234 -3.554,16.84 -10.97,30.359 -7.416,13.518 -19.003,24.179 -9.115,8.18801 -19.93,13.13201 -10.815,4.944 -23.252,6.952 -12.437,2.009 -28.042,2.009 l -59.79,0 q -12.515,0 -18.849,-3.785 -6.335,-3.785 -8.266,-10.66101 -1.931,-6.875 -1.931,-17.844 l 0,-166.086 q 0,-14.831 6.643,-21.47499 6.644,-6.643 21.476,-6.643 z m 17.767,36.30699 0,153.725 34.762,0 q 11.433,0 17.922,-0.618 6.489,-0.618 13.441,-3.09 6.952,-2.472 12.051,-6.952 23.02,-19.467 23.02,-67.052 0,-33.526 -10.119,-50.212 -10.12,-16.686 -24.952,-21.244 -14.832,-4.557 -35.843,-4.557 l -30.282,0 z" />
  <path
     style="fill:#b54b8a"
     inkscape:connector-curvature="0"
     id="path13"
     d="m 453.913,480.96597 -69.017,0 q -14.944,0 -21.337,-6.702 -6.394,-6.701 -6.394,-21.33701 l 0,-169.771 q 0,-14.943 6.548,-21.48999 6.547,-6.548 21.183,-6.548 l 73.177,0 q 16.176,0 28.038,2.003 11.862,2.003 21.26,7.703 8.011,4.77499 14.173,12.09299 6.162,7.318 9.398,16.176 3.235,8.858 3.235,18.718 0,33.893 -33.893,49.606 44.523,14.174 44.523,55.153 0,18.949 -9.706,34.123 -9.705,15.175 -26.19,22.41601 -10.321,4.313 -23.724,6.085 -13.403,1.772 -31.274,1.772 z m -3.389,-100.29201 -47.604,0 0,65.937 49.144,0 q 46.372,0 46.372,-33.431 0,-17.1 -12.017,-24.803 -12.016,-7.703 -35.895,-7.703 z m -47.604,-91.201 0,58.387 41.904,0 q 17.1,0 26.421,-3.235 9.32,-3.235 14.25,-12.324 3.851,-6.471 3.851,-14.482 0,-17.1 -12.17,-22.723 -12.171,-5.623 -37.128,-5.623 l -37.128,0 z" />
  <defs
     id="defs17" />
</svg>
