<?xml version="1.0" encoding="UTF-8" standalone="no"?>
<svg
   xmlns:dc="http://purl.org/dc/elements/1.1/"
   xmlns:cc="http://creativecommons.org/ns#"
   xmlns:rdf="http://www.w3.org/1999/02/22-rdf-syntax-ns#"
   xmlns:svg="http://www.w3.org/2000/svg"
   xmlns="http://www.w3.org/2000/svg"
   xmlns:sodipodi="http://sodipodi.sourceforge.net/DTD/sodipodi-0.dtd"
   xmlns:inkscape="http://www.inkscape.org/namespaces/inkscape"
   version="1.1"
   x="0px"
   y="0px"
   width="566.92902"
   height="566.92902"
   viewBox="0 0 566.929 566.92899"
   id="svg2"
   inkscape:version="0.48.2 r9819"
   sodipodi:docname="MatDBicon.svg"
   inkscape:export-filename="/Users/mussgill/Documents/Projects/MatDB/MatDBicon.png"
   inkscape:export-xdpi="162.82686"
   inkscape:export-ydpi="162.82686">
  <metadata
     id="metadata21">
    <rdf:RDF>
      <cc:Work
         rdf:about="">
        <dc:format>image/svg+xml</dc:format>
        <dc:type
           rdf:resource="http://purl.org/dc/dcmitype/StillImage" />
        <dc:title></dc:title>
      </cc:Work>
    </rdf:RDF>
  </metadata>
  <sodipodi:namedview
     pagecolor="#ffffff"
     bordercolor="#666666"
     borderopacity="1"
     objecttolerance="10"
     gridtolerance="10"
     guidetolerance="10"
     inkscape:pageopacity="0"
     inkscape:pageshadow="2"
     inkscape:window-width="1280"
     inkscape:window-height="752"
     id="namedview19"
     showgrid="false"
     units="px"
     inkscape:zoom="0.94191686"
     inkscape:cx="49.898248"
     inkscape:cy="283.46451"
     inkscape:window-x="0"
     inkscape:window-y="0"
     inkscape:window-maximized="1"
     inkscape:current-layer="svg2" />
  <path
     style="opacity:0.75;fill:#ffffff;fill-opacity:1"
     inkscape:connector-curvature="0"
     id="path5"
     d="m 42.074064,0.92900609 481.851856,0 c 23.23658,0 42.07406,18.83748591 42.07406,42.07406291 l 0,481.851861 c 0,23.23657 -18.83748,42.07406 -42.07406,42.07406 l -481.851856,0 C 18.837486,566.92899 0,548.0915 0,524.85493 L 0,43.003069 C 0,19.766492 18.837486,0.92900609 42.074064,0.92900609 z" />
  <text
     id="text7"
     x="283.465"
     y="191.33896"
     style="font-size:12px">
    <tspan
       style="font-size:250px;fill:#000000;font-family:DINAlternate-Bold"
       id="tspan9"
       font-size="250"
       y="262.84396"
       x="91.509003">Mat</tspan>
  </text>
  <path
     style="fill:#b54b8a"
     inkscape:connector-curvature="0"
     id="path11"
     d="m 203.867,254.79497 59.79,0 q 23.33,0 40.015,4.326 16.686,4.326 30.282,16.22199 35.38,30.282 35.38,92.081 0,20.394 -3.553,37.234 -3.554,16.84 -10.97,30.359 -7.416,13.518 -19.003,24.179 -9.115,8.18801 -19.93,13.13201 -10.815,4.944 -23.252,6.952 -12.437,2.009 -28.042,2.009 l -59.79,0 q -12.515,0 -18.849,-3.785 -6.335,-3.785 -8.266,-10.66101 -1.931,-6.875 -1.931,-17.844 l 0,-166.086 q 0,-14.831 6.643,-21.47499 6.644,-6.643 21.476,-6.643 z m 17.767,36.30699 0,153.725 34.762,0 q 11.433,0 17.922,-0.618 6.489,-0.618 13.441,-3.09 6.952,-2.472 12.051,-6.952 23.02,-19.467 23.02,-67.052 0,-33.526 -10.119,-50.212 -10.12,-16.686 -24.952,-21.244 -14.832,-4.557 -35.843,-4.557 l -30.282,0 z" />
  <path
     style="fill:#b54b8a"
     inkscape:connector-curvature="0"
     id="path13"
     d="m 453.913,480.96597 -69.017,0 q -14.944,0 -21.337,-6.702 -6.394,-6.701 -6.394,-21.33701 l 0,-169.771 q 0,-14.943 6.548,-21.48999 6.547,-6.548 21.183,-6.548 l 73.177,0 q 16.176,0 28.038,2.003 11.862,2.003 21.26,7.703 8.011,4.77499 14.173,12.09299 6.162,7.318 9.398,16.176 3.235,8.858 3.235,18.718 0,33.893 -33.893,49.606 44.523,14.174 44.523,55.153 0,18.949 -9.706,34.123 -9.705,15.175 -26.19,22.41601 -10.321,4.313 -23.724,6.085 -13.403,1.772 -31.274,1.772 z m -3.389,-100.29201 -47.604,0 0,65.937 49.144,0 q 46.372,0 46.372,-33.431 0,-17.1 -12.017,-24.803 -12.016,-7.703 -35.895,-7.703 z m -47.604,-91.201 0,58.387 41.904,0 q 17.1,0 26.421,-3.235 9.32,-3.235 14.25,-12.324 3.851,-6.471 3.851,-14.482 0,-17.1 -12.17,-22.723 -12.171,-5.623 -37.128,-5.623 l -37.128,0 z" />
  <path
     style="opacity:0.15;fill:#000000"
     inkscape:connector-curvature="0"
     id="path15"
     d="m 41.439,441.55796 q -0.248,-0.091 -0.338,0.157 l -1.607,4.414 q -0.126,0.348 0.27,0.492 l 8.432,3.069 q 0.297,0.108 0.406,-0.189 l 1.624,-4.464 q 0.091,-0.248 -0.207,-0.356 l -8.58,-3.123 z m 9.947,-29.8 q 0.09,-0.248 -0.158,-0.338 -2.52,-0.636 -5.494,0.668 -2.975,1.305 -4.261,3.757 -0.108,0.298 0.14,0.388 l 4.563,1.661 q 0.149,0.054 0.424,-0.239 1.218,-1.185 2.837,-1.158 0.216,0.023 0.361,-0.374 l 1.588,-4.365 z m 2.394,0.984 q 0.163,-0.446 0.523,-0.203 2.597,1.507 3.769,4.461 1.28,3.274 0.088,6.548 -0.957,2.628 -2.851,4.129 l -16.382,12.91 -1.733,4.762 q -0.126,0.347 -0.374,0.257 l -5.307,-1.932 q -0.297,-0.108 -0.153,-0.505 l 1.625,-4.464 q 0.054,-0.149 0.397,-0.473 l 18.492,-14.388 q 1.132,-1.105 1.439,-1.948 0.993,-2.728 -1.193,-4.591 l 1.66,-4.563 z m 12.544,43.546 -4.464,-1.625 q -0.347,-0.126 -0.239,-0.424 l 9.838,-27.03 -5.854,2.812 q -0.437,0.121 -0.311,-0.226 l 2.401,-6.596 6.702,-3.29 4.613,1.679 q 0.297,0.108 0.207,0.356 l -12.42,34.123 q -0.126,0.347 -0.473,0.221 z m 29.736,-28.382 q 0.09,-0.248 -0.208,-0.356 -3.183,-0.822 -6.392,1.127 -3.209,1.95 -4.418,5.273 l -6.012,16.516 q -1.372,3.769 -0.141,7.025 1.135,3.053 4.124,4.871 0.329,0.176 0.42,-0.072 l 1.66,-4.563 q 0.109,-0.297 -0.135,-0.554 -1.848,-2.021 -1,-4.352 l 6.373,-17.508 q 0.415,-1.141 1.545,-1.853 1.13,-0.712 2.18,-0.667 0.217,0.023 0.325,-0.275 l 1.679,-4.612 z m 2.349,0.799 q 0.09,-0.248 0.518,-0.036 2.863,1.548 4.051,4.765 1.189,3.217 0.014,6.445 l -6.201,17.036 q -1.247,3.427 -4.23,5.295 -2.982,1.867 -6.473,1.272 -0.397,-0.145 -0.342,-0.294 l 1.717,-4.718 q 0.09,-0.249 0.375,-0.258 1.168,0.032 2.327,-0.84 1.16,-0.872 1.54,-1.915 l 6.291,-17.284 q 0.922,-2.533 -1.097,-4.393 -0.262,-0.207 -0.19,-0.406 l 1.7,-4.669 z m 9.986,37.223 q -0.248,-0.091 -0.338,0.157 l -1.607,4.41501 q -0.126,0.347 0.271,0.491 l 8.431,3.069 q 0.298,0.108 0.406,-0.189 l 1.625,-4.464 q 0.09,-0.248 -0.208,-0.356 l -8.58,-3.12301 z m 9.947,-29.8 q 0.091,-0.248 -0.157,-0.338 -2.521,-0.636 -5.495,0.668 -2.974,1.305 -4.26,3.757 -0.109,0.298 0.139,0.388 l 4.563,1.661 q 0.149,0.054 0.424,-0.239 1.218,-1.185 2.837,-1.158 0.216,0.023 0.361,-0.374 l 1.588,-4.365 z m 2.395,0.984 q 0.162,-0.446 0.523,-0.203 2.597,1.507 3.768,4.461 1.28,3.274 0.088,6.548 -0.956,2.628 -2.851,4.13 l -16.381,12.909 -1.733,4.76201 q -0.127,0.347 -0.375,0.257 l -5.307,-1.932 q -0.297,-0.108 -0.153,-0.505 l 1.625,-4.46401 q 0.054,-0.149 0.397,-0.473 l 18.492,-14.388 q 1.133,-1.105 1.439,-1.948 0.993,-2.728 -1.193,-4.591 l 1.661,-4.563 z m 19.96,7.041 q 0.091,-0.248 -0.207,-0.357 -3.183,-0.821 -6.392,1.128 -3.209,1.949 -4.419,5.272 l -6.011,16.516 q -1.372,3.77001 -0.142,7.02601 1.136,3.053 4.125,4.871 0.329,0.176 0.419,-0.072 l 1.661,-4.563 q 0.108,-0.298 -0.135,-0.555 -1.849,-2.02 -1,-4.351 l 6.372,-17.50801 q 0.415,-1.141 1.545,-1.853 1.13,-0.712 2.181,-0.667 0.216,0.023 0.324,-0.275 l 1.679,-4.612 z m 2.349,0.799 q 0.091,-0.249 0.519,-0.036 2.863,1.548 4.051,4.765 1.188,3.216 0.013,6.445 l -6.2,17.03601 q -1.248,3.427 -4.23,5.295 -2.983,1.867 -6.473,1.271 -0.397,-0.144 -0.343,-0.293 l 1.718,-4.719 q 0.09,-0.248 0.374,-0.257 1.168,0.032 2.328,-0.84 1.16,-0.872 1.539,-1.915 l 6.291,-17.28401 q 0.922,-2.533 -1.097,-4.393 -0.261,-0.208 -0.189,-0.406 l 1.699,-4.669 z m 16.52,25.44601 4.215,1.534 q 0.347,0.127 0.239,0.424 l -2.617,7.192 2.281,0.83 q 0.298,0.109 0.226,0.307 l -1.697,4.662 q -0.055,0.149 -0.303,0.059 l -2.331,-0.849 -1.696,4.662 q -0.127,0.348 -0.424,0.239 l -4.315,-1.57 q -0.298,-0.109 -0.208,-0.357 l 6.174,-16.962 q 0.108,-0.297 0.456,-0.171 z m -14.843,8.527 1.751,-4.811 14.919,-22.31601 q 0.122,-0.181 0.37,-0.091 l 4.91,1.788 q 0.149,0.054 -0.041,0.266 l -14.793,22.58701 1.935,0.704 q 0.347,0.126 0.238,0.424 l -1.57,4.315 q -0.108,0.297 -0.356,0.207 l -7.192,-2.617 q -0.298,-0.109 -0.171,-0.456 z m -18.827,-47.42301 q 0.347,0.126 0.473,-0.221 l 12.42,-34.123 q 0.09,-0.248 -0.207,-0.356 l -4.613,-1.679 -6.701,3.29 -2.401,6.596 q -0.127,0.347 0.311,0.226 l 5.854,-2.812 -9.839,27.03 q -0.108,0.298 0.239,0.424 l 4.464,1.625 z m -12.543,-43.546 -1.661,4.563 q 2.186,1.863 1.193,4.591 -0.306,0.843 -1.439,1.947 l -18.492,14.389 q -0.343,0.324 -0.397,0.473 l -1.625,4.464 q -0.144,0.396 0.153,0.505 l 5.307,1.931 q 0.248,0.091 0.375,-0.257 l 1.733,-4.761 16.381,-12.91 q 1.895,-1.501 2.851,-4.129 1.192,-3.274 -0.088,-6.548 -1.171,-2.954 -3.768,-4.461 -0.361,-0.243 -0.523,0.203 z m -2.395,-0.984 -1.588,4.365 q -0.145,0.397 -0.361,0.374 -1.619,-0.028 -2.837,1.158 -0.275,0.293 -0.424,0.239 l -4.563,-1.661 q -0.248,-0.09 -0.139,-0.388 1.286,-2.452 4.26,-3.757 2.974,-1.305 5.495,-0.668 0.248,0.09 0.157,0.338 z m -9.947,29.799 8.58,3.123 q 0.298,0.109 0.208,0.357 l -1.625,4.463 q -0.108,0.298 -0.406,0.19 l -8.431,-3.069 q -0.397,-0.145 -0.271,-0.492 l 1.607,-4.414 q 0.09,-0.248 0.338,-0.158 z m -3.909,80.30201 q 1.488,0.541 2.299,2.016 0.812,1.475 0.18,3.211 l -1.751,4.81 q -1.011,2.778 -4.1,2.777 l -1.733,4.761 q -0.126,0.347 0.239,0.424 3.589,0.633 6.485,-1.15 2.895,-1.783 4.069,-5.006 l 1.769,-4.861 q 1.372,-3.769 -0.332,-7.422 -1.703,-3.653 -5.383,-4.656 l -1.176,-0.316 q -0.217,-0.022 -0.271,0.127 l -1.787,4.91 q -0.09,0.248 0.144,0.221 1.001,0.027 1.348,0.154 z m 4.495,-12.35 q -1.438,-0.524 -2.933,0.112 -1.495,0.635 -2.055,2.173 l -6.426,17.656 q -0.813,2.232 0.792,3.996 0.329,0.176 0.221,0.473 l -1.643,4.514 q -0.144,0.396 -0.455,0.171 -3.052,-1.954 -4.048,-5.237 -0.937,-2.981 0.164,-6.006 l 6.228,-17.111 q 1.354,-3.72 4.874,-5.444 3.52,-1.723 6.992,-0.46 3.67,1.336 5.283,4.619 1.267,2.539 0.986,5.47 -0.099,0.582 -0.545,0.42 l -4.712,-1.715 q -0.193,-2.711 -2.723,-3.631 z m -19.391,-12.618 -1.699,4.669 q -0.072,0.198 0.189,0.406 2.019,1.86 1.097,4.393 l -6.291,17.284 q -0.379,1.043 -1.539,1.915 -1.16,0.872 -2.328,0.84 -0.284,0.009 -0.375,0.257 l -1.717,4.719 q -0.054,0.149 0.343,0.293 3.49,0.596 6.472,-1.271 2.983,-1.868 4.23,-5.295 l 6.201,-17.036 q 1.175,-3.229 -0.013,-6.445 -1.188,-3.217 -4.051,-4.765 -0.428,-0.212 -0.519,0.036 z m -2.349,-0.799 -1.679,4.612 q -0.108,0.298 -0.324,0.275 -1.051,-0.045 -2.181,0.667 -1.13,0.712 -1.545,1.853 l -6.372,17.508 q -0.849,2.331 1,4.351 0.243,0.257 0.135,0.555 l -1.661,4.563 q -0.09,0.248 -0.419,0.072 -2.99,-1.818 -4.125,-4.871 -1.23,-3.256 0.142,-7.026 l 6.011,-16.516 q 1.21,-3.323 4.419,-5.272 3.209,-1.949 6.392,-1.128 0.297,0.109 0.207,0.357 z" />
  <defs
     id="defs17" />
</svg>
